<svg width="24" height="24" viewBox="0 0 24 24" fill="none" xmlns="http://www.w3.org/2000/svg">
<mask id="mask0_93_1551" style="mask-type:alpha" maskUnits="userSpaceOnUse" x="0" y="0" width="24" height="24">
<rect width="24" height="24" transform="matrix(-1 0 0 1 24 0)" fill="#D9D9D9"/>
</mask>
<g mask="url(#mask0_93_1551)">
<path d="M10.75 8.09138V4.4086C10.75 4.14775 10.6631 3.93111 10.4893 3.75868C10.3155 3.58623 10.1002 3.5 9.84325 3.5H4.40272C4.14582 3.5 3.93116 3.58623 3.75872 3.75868C3.58628 3.93111 3.50005 4.14775 3.50005 4.4086V8.09138C3.50005 8.35224 3.58695 8.56889 3.76075 8.74132C3.93455 8.91376 4.14991 8.99998 4.40682 8.99998H9.84733C10.1042 8.99998 10.3189 8.91376 10.4913 8.74132C10.6638 8.56889 10.75 8.35224 10.75 8.09138ZM20.5 11.5999V4.39982C20.5 4.14482 20.4131 3.93111 20.2393 3.75868C20.0655 3.58623 19.8501 3.5 19.5932 3.5H14.1527C13.8958 3.5 13.6811 3.58626 13.5087 3.75877C13.3363 3.93127 13.25 4.14503 13.25 4.40003V11.6001C13.25 11.8551 13.3369 12.0688 13.5107 12.2413C13.6845 12.4137 13.8999 12.5 14.1568 12.5H19.5973C19.8542 12.5 20.0689 12.4137 20.2413 12.2412C20.4138 12.0687 20.5 11.8549 20.5 11.5999ZM10.75 19.5999V12.3998C10.75 12.1448 10.6631 11.9311 10.4893 11.7587C10.3155 11.5862 10.1002 11.5 9.84325 11.5H4.40272C4.14582 11.5 3.93116 11.5863 3.75872 11.7588C3.58628 11.9313 3.50005 12.145 3.50005 12.4V19.6001C3.50005 19.8551 3.58695 20.0688 3.76075 20.2413C3.93455 20.4137 4.14991 20.5 4.40682 20.5H9.84733C10.1042 20.5 10.3189 20.4137 10.4913 20.2412C10.6638 20.0687 10.75 19.8549 10.75 19.5999ZM20.5 19.5914V15.9086C20.5 15.6477 20.4131 15.4311 20.2393 15.2586C20.0655 15.0862 19.8501 15 19.5932 15H14.1527C13.8958 15 13.6811 15.0862 13.5087 15.2586C13.3363 15.4311 13.25 15.6477 13.25 15.9086V19.5914C13.25 19.8522 13.3369 20.0688 13.5107 20.2413C13.6845 20.4137 13.8999 20.5 14.1568 20.5H19.5973C19.8542 20.5 20.0689 20.4137 20.2413 20.2413C20.4138 20.0688 20.5 19.8522 20.5 19.5914ZM19 11H14.75V4.99997H19V11ZM9.25005 19H5.00002V13H9.25005V19ZM9.25005 7.5H5.00002V4.99997H9.25005V7.5ZM19 19H14.75V16.5H19V19Z" fill="#00263E"/>
</g>
</svg>
