<svg width="24" height="24" viewBox="0 0 24 24" fill="none" xmlns="http://www.w3.org/2000/svg">
<mask id="mask0_297_4021" style="mask-type:alpha" maskUnits="userSpaceOnUse" x="0" y="0" width="24" height="24">
<rect width="24" height="24" fill="#D9D9D9"/>
</mask>
<g mask="url(#mask0_297_4021)">
<path d="M11.9984 21C11.7692 21 11.5449 20.96 11.3253 20.8801C11.1057 20.8001 10.8993 20.6891 10.7061 20.547L3.33977 14.7996C3.11104 14.6253 2.9978 14.3966 3.00003 14.1133C3.00227 13.8301 3.119 13.5983 3.35023 13.418C3.50919 13.2978 3.68479 13.2377 3.87703 13.2377C4.06926 13.2377 4.2467 13.2971 4.40937 13.4158L11.7757 19.1451C11.843 19.1977 11.9178 19.224 12 19.224C12.0822 19.224 12.157 19.1977 12.2243 19.1451L19.5906 13.4158C19.7533 13.2971 19.9307 13.2377 20.123 13.2377C20.3152 13.2377 20.4908 13.2978 20.6498 13.418C20.881 13.5983 20.9977 13.8301 21 14.1133C21.0022 14.3966 20.889 14.6253 20.6602 14.7996L13.2939 20.547C13.1 20.6891 12.8929 20.8001 12.6726 20.8801C12.4522 20.96 12.2275 21 11.9984 21ZM11.9993 15.8026C11.7696 15.8026 11.5449 15.7626 11.3253 15.6827C11.1057 15.6028 10.8993 15.4917 10.7061 15.3496L3.53217 9.74438C3.39045 9.63761 3.28447 9.5098 3.21421 9.36096C3.14393 9.21211 3.1088 9.05889 3.1088 8.90129C3.1088 8.74241 3.14393 8.58792 3.21421 8.43785C3.28447 8.28779 3.38986 8.1598 3.53039 8.05387L10.701 2.45445C10.8958 2.31224 11.1036 2.20095 11.3246 2.12057C11.5455 2.04019 11.7709 2 12.0007 2C12.2304 2 12.4551 2.03997 12.6747 2.1199C12.8943 2.19985 13.1006 2.31089 13.2939 2.45301L20.4679 8.05823C20.6096 8.165 20.7155 8.29281 20.7858 8.44166C20.8561 8.59048 20.8912 8.7437 20.8912 8.90129C20.8912 9.0602 20.8561 9.21469 20.7858 9.36477C20.7155 9.51482 20.6101 9.64282 20.4696 9.74875L13.299 15.3481C13.1042 15.4903 12.8964 15.6016 12.6754 15.682C12.4545 15.7624 12.2291 15.8026 11.9993 15.8026ZM11.7757 13.9477C11.843 14.0003 11.9178 14.0266 12 14.0266C12.0822 14.0266 12.157 14.0003 12.2243 13.9477L18.7049 8.90129L12.2243 3.85489C12.157 3.80231 12.0822 3.77601 12 3.77601C11.9178 3.77601 11.843 3.80231 11.7757 3.85489L5.29511 8.90129L11.7757 13.9477Z" fill="#00263E"/>
</g>
</svg>
