<svg width="24" height="24" viewBox="0 0 24 24" fill="none" xmlns="http://www.w3.org/2000/svg">
<mask id="mask0_326_5760" style="mask-type:alpha" maskUnits="userSpaceOnUse" x="0" y="0" width="24" height="24">
<rect width="24" height="24" fill="#D9D9D9"/>
</mask>
<g mask="url(#mask0_326_5760)">
<path d="M7.86535 8.74997C7.65285 8.74997 7.47473 8.67807 7.331 8.53427C7.18725 8.39045 7.11538 8.21225 7.11538 7.99967C7.11538 7.78707 7.18725 7.60898 7.331 7.4654C7.47473 7.32181 7.65285 7.25002 7.86535 7.25002H20C20.2125 7.25002 20.3906 7.32192 20.5344 7.46572C20.6781 7.60954 20.75 7.78774 20.75 8.00032C20.75 8.21292 20.6781 8.39101 20.5344 8.53459C20.3906 8.67818 20.2125 8.74997 20 8.74997H7.86535ZM7.86535 12.75C7.65285 12.75 7.47473 12.6781 7.331 12.5343C7.18725 12.3905 7.11538 12.2123 7.11538 11.9997C7.11538 11.7871 7.18725 11.609 7.331 11.4654C7.47473 11.3218 7.65285 11.25 7.86535 11.25H20C20.2125 11.25 20.3906 11.3219 20.5344 11.4657C20.6781 11.6095 20.75 11.7877 20.75 12.0003C20.75 12.2129 20.6781 12.391 20.5344 12.5346C20.3906 12.6782 20.2125 12.75 20 12.75H7.86535ZM7.86535 16.75C7.65285 16.75 7.47473 16.6781 7.331 16.5343C7.18725 16.3905 7.11538 16.2123 7.11538 15.9997C7.11538 15.7871 7.18725 15.609 7.331 15.4654C7.47473 15.3218 7.65285 15.25 7.86535 15.25H20C20.2125 15.25 20.3906 15.3219 20.5344 15.4657C20.6781 15.6095 20.75 15.7877 20.75 16.0003C20.75 16.2129 20.6781 16.391 20.5344 16.5346C20.3906 16.6782 20.2125 16.75 20 16.75H7.86535ZM4.07927 8.8269C3.84564 8.8269 3.64902 8.74788 3.48942 8.58985C3.32981 8.43181 3.25 8.23598 3.25 8.00235C3.25 7.76873 3.32902 7.57211 3.48705 7.4125C3.64508 7.2529 3.84092 7.1731 4.07455 7.1731C4.30817 7.1731 4.50478 7.25211 4.6644 7.41015C4.82402 7.56818 4.90383 7.76401 4.90383 7.99765C4.90383 8.23126 4.8248 8.42788 4.66675 8.5875C4.50872 8.7471 4.31289 8.8269 4.07927 8.8269ZM4.07927 12.8269C3.84564 12.8269 3.64902 12.7479 3.48942 12.5898C3.32981 12.4318 3.25 12.236 3.25 12.0023C3.25 11.7687 3.32902 11.5721 3.48705 11.4125C3.64508 11.2529 3.84092 11.1731 4.07455 11.1731C4.30817 11.1731 4.50478 11.2521 4.6644 11.4101C4.82402 11.5682 4.90383 11.764 4.90383 11.9976C4.90383 12.2313 4.8248 12.4279 4.66675 12.5875C4.50872 12.7471 4.31289 12.8269 4.07927 12.8269ZM4.07927 16.8269C3.84564 16.8269 3.64902 16.7479 3.48942 16.5898C3.32981 16.4318 3.25 16.236 3.25 16.0023C3.25 15.7687 3.32902 15.5721 3.48705 15.4125C3.64508 15.2529 3.84092 15.1731 4.07455 15.1731C4.30817 15.1731 4.50478 15.2521 4.6644 15.4101C4.82402 15.5682 4.90383 15.764 4.90383 15.9976C4.90383 16.2313 4.8248 16.4279 4.66675 16.5875C4.50872 16.7471 4.31289 16.8269 4.07927 16.8269Z" fill="#00263E"/>
</g>
</svg>
