<svg width="24" height="24" viewBox="0 0 24 24" fill="none" xmlns="http://www.w3.org/2000/svg">
<path d="M12 11.8678C12.627 11.8678 13.16 11.6552 13.5992 11.23C14.0384 10.8048 14.258 10.2887 14.258 9.68167C14.258 9.07466 14.0384 8.55855 13.5992 8.13335C13.16 7.70812 12.627 7.49551 12 7.49551C11.373 7.49551 10.84 7.70812 10.4008 8.13335C9.96156 8.55855 9.74196 9.07466 9.74196 9.68167C9.74196 10.2887 9.96156 10.8048 10.4008 11.23C10.84 11.6552 11.373 11.8678 12 11.8678ZM12 24C11.8445 24 11.6931 23.9748 11.5459 23.9243C11.3987 23.8739 11.2647 23.8006 11.1439 23.7045C8.07031 21.0266 5.77792 18.5413 4.26675 16.2486C2.75558 13.956 2 11.8502 2 9.93152C2 6.9045 3.00662 4.49249 5.01985 2.69548C7.03308 0.898493 9.3598 0 12 0C14.6402 0 16.9669 0.898493 18.9801 2.69548C20.9934 4.49249 22 6.9045 22 9.93152C22 11.8502 21.2444 13.956 19.7332 16.2486C18.2221 18.5413 15.9297 21.0266 12.8561 23.7045C12.7436 23.8006 12.6116 23.8739 12.4603 23.9243C12.3089 23.9748 12.1555 24 12 24Z" fill="white"/>
</svg>
