<svg width="25" height="24" viewBox="0 0 25 24" fill="none" xmlns="http://www.w3.org/2000/svg">
<path d="M3.24216 21.0562C2.60409 21.0562 2.06401 20.8345 1.6219 20.3912C1.17979 19.9478 0.95874 19.4062 0.95874 18.7664V4.34591C0.95874 3.70607 1.17979 3.16449 1.6219 2.72115C2.06401 2.27782 2.60409 2.05615 3.24216 2.05615H22.6753C23.3134 2.05615 23.8535 2.27782 24.2956 2.72115C24.7377 3.16449 24.9587 3.70607 24.9587 4.34591V18.7664C24.9587 19.4062 24.7377 19.9478 24.2956 20.3912C23.8535 20.8345 23.3134 21.0562 22.6753 21.0562H3.24216ZM12.9587 12.053C13.064 12.053 13.1685 12.0372 13.2721 12.0055C13.3757 11.9739 13.4761 11.9304 13.5733 11.8752L22.6074 6.0753C22.7515 5.986 22.8535 5.8703 22.9134 5.7282C22.9733 5.5861 22.9912 5.4363 22.9669 5.27878C22.9507 4.98648 22.8082 4.76929 22.5393 4.62721C22.2705 4.48511 21.9993 4.49769 21.7256 4.66496L12.9587 10.2895L4.1919 4.66496C3.91821 4.49769 3.64899 4.4843 3.38423 4.62477C3.11945 4.76522 2.97491 4.97916 2.95062 5.26659C2.92632 5.43711 2.94413 5.59544 3.00405 5.74159C3.06397 5.88775 3.16599 5.99898 3.31011 6.0753L12.3442 11.8752C12.4413 11.9304 12.5417 11.9739 12.6454 12.0055C12.749 12.0372 12.8535 12.053 12.9587 12.053Z" fill="white"/>
</svg>
