<svg width="24" height="24" viewBox="0 0 24 24" fill="none" xmlns="http://www.w3.org/2000/svg">
<mask id="mask0_326_5744" style="mask-type:alpha" maskUnits="userSpaceOnUse" x="0" y="0" width="24" height="24">
<rect width="24" height="24" fill="#D9D9D9"/>
</mask>
<g mask="url(#mask0_326_5744)">
<path d="M14.4173 20.2558L8.99998 18.3616L4.69615 20.0269C4.40128 20.141 4.12821 20.1084 3.87692 19.9289C3.62564 19.7494 3.5 19.5039 3.5 19.1923V6.07702C3.5 5.87959 3.55289 5.70235 3.65868 5.5453C3.76444 5.38825 3.91283 5.27447 4.10385 5.20395L8.40768 3.74435C8.60511 3.68408 8.80254 3.65139 8.99998 3.64627C9.19741 3.64114 9.39484 3.67383 9.59228 3.74435L15 5.63857L19.3038 3.9732C19.5987 3.8591 19.8717 3.88698 20.123 4.05685C20.3743 4.22672 20.5 4.46422 20.5 4.76935V17.9616C20.5 18.1654 20.4423 18.3443 20.3269 18.4981C20.2115 18.652 20.0551 18.7642 19.8576 18.8347L15.5827 20.2654C15.3916 20.3257 15.1974 20.3568 15 20.3587C14.8025 20.3606 14.6083 20.3263 14.4173 20.2558ZM14.25 18.627V6.927L9.74995 5.35392V17.0539L14.25 18.627Z" fill="#00263E"/>
</g>
</svg>
