<svg width="24" height="24" viewBox="0 0 24 24" fill="none" xmlns="http://www.w3.org/2000/svg">
<mask id="mask0_93_1585" style="mask-type:alpha" maskUnits="userSpaceOnUse" x="0" y="0" width="24" height="24">
<rect width="24" height="24" transform="matrix(-1 0 0 1 24 0)" fill="#D9D9D9"/>
</mask>
<g mask="url(#mask0_93_1585)">
<path d="M12.075 20.45C12.2417 20.45 12.4042 20.4292 12.5625 20.3875C12.7208 20.3458 12.875 20.2833 13.025 20.2L18.025 17.5C18.3583 17.3167 18.6167 17.0708 18.8 16.7625C18.9833 16.4542 19.075 16.1083 19.075 15.725V10.925L21.475 9.6C21.6583 9.5 21.7917 9.375 21.875 9.225C21.9583 9.075 22 8.90833 22 8.725C22 8.54167 21.9583 8.375 21.875 8.225C21.7917 8.075 21.6583 7.95 21.475 7.85L13.025 3.25C12.875 3.16667 12.7208 3.10417 12.5625 3.0625C12.4042 3.02083 12.2417 3 12.075 3C11.9083 3 11.7458 3.02083 11.5875 3.0625C11.4292 3.10417 11.275 3.16667 11.125 3.25L1.6 8.45C1.43333 8.53333 1.30416 8.65417 1.2125 8.8125C1.12083 8.97083 1.075 9.14167 1.075 9.325V15.725C1.075 16.0083 1.17083 16.2458 1.3625 16.4375C1.55416 16.6292 1.79167 16.725 2.075 16.725C2.35833 16.725 2.59583 16.6292 2.7875 16.4375C2.97917 16.2458 3.075 16.0083 3.075 15.725V9.825L5.075 10.925V15.725C5.075 16.1083 5.16667 16.4542 5.35 16.7625C5.53333 17.0708 5.79167 17.3167 6.125 17.5L11.125 20.2C11.275 20.2833 11.4292 20.3458 11.5875 20.3875C11.7458 20.4292 11.9083 20.45 12.075 20.45ZM12.075 12.425L5.225 8.725L12.075 5.025L18.925 8.725L12.075 12.425ZM12.075 18.45L7.075 15.75V11.975L11.1 14.2C11.25 14.2833 11.4083 14.3458 11.575 14.3875C11.7417 14.4292 11.9083 14.45 12.075 14.45C12.2417 14.45 12.4083 14.4292 12.575 14.3875C12.7417 14.3458 12.9 14.2833 13.05 14.2L17.075 11.975V15.75L12.075 18.45Z" fill="#00263E"/>
</g>
</svg>
