<svg width="24" height="24" viewBox="0 0 24 24" fill="none" xmlns="http://www.w3.org/2000/svg">
<mask id="mask0_93_1415" style="mask-type:alpha" maskUnits="userSpaceOnUse" x="0" y="0" width="24" height="24">
<rect width="24" height="24" transform="matrix(-1 0 0 1 24 0)" fill="#D9D9D9"/>
</mask>
<g mask="url(#mask0_93_1415)">
<path d="M15.0385 22.0597C15.8052 22.0597 16.4846 21.8436 17.0769 21.4116C17.6693 20.9795 18.1032 20.4071 18.3789 19.6943C18.6135 20.0378 18.9221 20.3023 19.3048 20.4875C19.6875 20.6728 20.0859 20.7654 20.5 20.7654C21.2731 20.7654 21.9247 20.4978 22.4548 19.9625C22.9849 19.4273 23.25 18.7782 23.25 18.0154C23.25 17.35 23.0263 16.7475 22.5789 16.2077C22.1314 15.668 21.5654 15.3757 20.8808 15.3308C21.1654 15.0103 21.3878 14.6481 21.5481 14.2443C21.7083 13.8404 21.7885 13.4174 21.7885 12.9751C21.7885 12.3661 21.6353 11.794 21.3289 11.2587C21.0225 10.7235 20.593 10.2853 20.0404 9.94431C19.9763 10.1674 19.8895 10.4065 19.7799 10.6616C19.6702 10.9167 19.5494 11.1404 19.4174 11.3327C19.6892 11.5417 19.8981 11.7914 20.0443 12.0818C20.1904 12.3722 20.2635 12.6783 20.2635 13.0001C20.2635 13.9847 19.8802 14.6061 19.1135 14.8645C18.3469 15.1228 17.5898 15.3251 16.8424 15.4712L16.4924 16.0693C16.6757 16.6026 16.8292 17.0552 16.953 17.427C17.0767 17.7988 17.1385 18.1379 17.1385 18.4443C17.1385 19.0084 16.9353 19.5004 16.5289 19.9203C16.1225 20.3401 15.6289 20.5501 15.0481 20.5501C14.4571 20.5501 13.9597 20.3363 13.5558 19.9087C13.152 19.4812 12.8128 18.9536 12.5385 18.326C12.2641 17.6985 12.042 17.0334 11.8721 16.3308C11.7023 15.6283 11.5641 15.002 11.4577 14.452C11.4141 14.2392 11.3045 14.0687 11.1289 13.9405C10.9532 13.8123 10.7641 13.7802 10.5616 13.8443C10.3488 13.9084 10.1891 14.0376 10.0827 14.2318C9.97633 14.426 9.95005 14.6327 10.0039 14.852C10.1475 15.5738 10.3279 16.3552 10.5452 17.1962C10.7626 18.0372 11.0574 18.818 11.4298 19.5385C11.8023 20.259 12.2799 20.8593 12.8625 21.3395C13.4452 21.8196 14.1705 22.0597 15.0385 22.0597ZM20.5 19.2654C20.1526 19.2654 19.8574 19.144 19.6144 18.901C19.3715 18.6581 19.25 18.3629 19.25 18.0154C19.25 17.668 19.3715 17.3728 19.6144 17.1298C19.8574 16.8869 20.1526 16.7654 20.5 16.7654C20.8475 16.7654 21.1426 16.8869 21.3856 17.1298C21.6285 17.3728 21.75 17.668 21.75 18.0154C21.75 18.3629 21.6285 18.6581 21.3856 18.901C21.1426 19.144 20.8475 19.2654 20.5 19.2654ZM13.3962 14.6674C13.5616 14.8327 13.7584 14.9045 13.9866 14.8828C14.2148 14.861 14.4167 14.7674 14.5924 14.602C15.8436 13.4674 16.8494 12.4395 17.6097 11.5183C18.3699 10.5972 18.75 9.59943 18.75 8.52508C18.75 7.51227 18.4032 6.65907 17.7097 5.96548C17.0161 5.27188 16.1629 4.92508 15.1501 4.92508C15.0257 4.92508 14.9145 4.93246 14.8164 4.94721C14.7183 4.96196 14.6199 4.97895 14.5212 4.99818C14.5943 4.83791 14.6507 4.67606 14.6904 4.51261C14.7302 4.34914 14.75 4.17574 14.75 3.99241C14.75 3.22959 14.4824 2.58056 13.9472 2.04531C13.4119 1.51006 12.7629 1.24243 12.0001 1.24243C11.2372 1.24243 10.5882 1.51006 10.053 2.04531C9.5177 2.58056 9.25007 3.22959 9.25007 3.99241C9.25007 4.17574 9.26994 4.34657 9.30968 4.50491C9.34943 4.66324 9.40584 4.82253 9.47893 4.98278C9.38019 4.96355 9.28179 4.94912 9.18372 4.93951C9.08564 4.92989 8.97442 4.92508 8.85005 4.92508C7.97185 4.92508 7.21641 5.19303 6.58372 5.72893C5.95104 6.26482 5.5488 6.93724 5.377 7.74621C5.60648 7.70902 5.86385 7.69043 6.1491 7.69043C6.43435 7.69043 6.69684 7.7039 6.93657 7.73083C7.08529 7.3475 7.32824 7.03403 7.66543 6.79043C8.00261 6.54685 8.39748 6.42506 8.85005 6.42506C9.45262 6.42506 9.92762 6.59108 10.2751 6.92313C10.6225 7.25518 11.0859 7.75582 11.6655 8.42506H12.3597C12.9558 7.72891 13.4276 7.22153 13.7751 6.90293C14.1225 6.58435 14.5808 6.42506 15.1501 6.42506C15.7539 6.42506 16.2549 6.6241 16.653 7.02218C17.051 7.42027 17.2501 7.92123 17.2501 8.52508C17.2501 9.24432 16.9193 9.99752 16.2578 10.7847C15.5962 11.5719 14.6879 12.493 13.5328 13.5482C13.3571 13.7033 13.2517 13.8898 13.2164 14.1078C13.1812 14.3257 13.2411 14.5122 13.3962 14.6674ZM12.0001 5.24243C11.6526 5.24243 11.3574 5.12096 11.1144 4.87801C10.8715 4.63504 10.75 4.33984 10.75 3.99241C10.75 3.64497 10.8715 3.34977 11.1144 3.10681C11.3574 2.86386 11.6526 2.74238 12.0001 2.74238C12.3475 2.74238 12.6427 2.86386 12.8857 3.10681C13.1286 3.34977 13.2501 3.64497 13.2501 3.99241C13.2501 4.33984 13.1286 4.63504 12.8857 4.87801C12.6427 5.12096 12.3475 5.24243 12.0001 5.24243ZM9.00583 22.0693C9.30839 22.0693 9.60679 22.0321 9.90102 21.9577C10.1952 21.8834 10.4802 21.7635 10.7558 21.5981C10.6173 21.4225 10.4789 21.2148 10.3404 20.9751C10.202 20.7353 10.077 20.5142 9.96545 20.3116C9.80135 20.4026 9.63564 20.4667 9.46833 20.5039C9.30103 20.5411 9.13532 20.5597 8.97122 20.5597C8.38019 20.5597 7.87987 20.3497 7.47025 19.9299C7.06063 19.51 6.85583 19.0097 6.85583 18.4289C6.85583 18.1122 6.91768 17.7722 7.0414 17.4087C7.16512 17.0452 7.31864 16.5968 7.50198 16.0635L7.14237 15.4655C6.37826 15.3193 5.61703 15.1154 4.8587 14.8539C4.10037 14.5924 3.7212 13.9693 3.7212 12.9847C3.7212 12.2475 3.98627 11.7064 4.5164 11.3616C5.04653 11.0167 5.63531 10.8443 6.28275 10.8443C6.87892 10.8443 7.56834 10.9427 8.35103 11.1395C9.13373 11.3363 10.0264 11.5962 11.0289 11.9193C11.2481 11.9834 11.459 11.9741 11.6616 11.8914C11.8642 11.8087 11.9975 11.6577 12.0616 11.4385C12.1257 11.2257 12.0936 11.0238 11.9654 10.8328C11.8372 10.6417 11.6667 10.5142 11.4539 10.4501C10.4231 10.1231 9.49077 9.85392 8.6568 9.64238C7.82282 9.43083 7.04557 9.32506 6.32508 9.32506C5.24559 9.32506 4.29175 9.64429 3.46355 10.2828C2.63535 10.9212 2.22125 11.8218 2.22125 12.9847C2.22125 13.427 2.29978 13.8452 2.45683 14.2395C2.61387 14.6337 2.83471 14.9975 3.11933 15.3308C2.43471 15.3821 1.86868 15.6744 1.42125 16.2077C0.973818 16.7411 0.750101 17.3436 0.750101 18.0154C0.750101 18.7718 1.01517 19.4193 1.5453 19.9577C2.07542 20.4962 2.72701 20.7654 3.50007 20.7654C3.91419 20.7654 4.31259 20.6728 4.69528 20.4875C5.07796 20.3023 5.38661 20.0378 5.62123 19.6943C5.89686 20.4071 6.33403 20.9811 6.93275 21.4164C7.53147 21.8516 8.22249 22.0693 9.00583 22.0693ZM3.47507 19.2654C3.12764 19.2654 2.83662 19.144 2.602 18.901C2.36738 18.6581 2.25007 18.3629 2.25007 18.0154C2.25007 17.668 2.37155 17.3686 2.6145 17.1173C2.85745 16.866 3.15264 16.7404 3.50007 16.7404C3.84752 16.7404 4.14272 16.8619 4.38568 17.1048C4.62863 17.3478 4.7501 17.643 4.7501 17.9904C4.7501 18.3379 4.62446 18.6372 4.37317 18.8885C4.12189 19.1398 3.82253 19.2654 3.47507 19.2654Z" fill="#00263E"/>
</g>
</svg>
