<svg width="24" height="24" viewBox="0 0 24 24" fill="none" xmlns="http://www.w3.org/2000/svg">
<mask id="mask0_93_1598" style="mask-type:alpha" maskUnits="userSpaceOnUse" x="0" y="0" width="24" height="24">
<rect width="24" height="24" transform="matrix(-1 0 0 1 24 0)" fill="#D9D9D9"/>
</mask>
<g mask="url(#mask0_93_1598)">
<path d="M12 14.75C11.1564 14.75 10.3901 14.5496 9.701 14.149C9.0119 13.7484 8.4571 13.2179 8.0366 12.5577C8.58787 12.132 9.19972 11.8077 9.87215 11.5846C10.5446 11.3615 11.2539 11.25 12 11.25C12.7462 11.25 13.4555 11.3615 14.1279 11.5846C14.8003 11.8077 15.4122 12.132 15.9634 12.5577C15.5429 13.2179 14.9881 13.7484 14.299 14.149C13.6099 14.5496 12.8436 14.75 12 14.75ZM12 9.74995C11.5141 9.74995 11.101 9.57976 10.7606 9.23938C10.4202 8.89901 10.25 8.48588 10.25 7.99998C10.25 7.51408 10.4202 7.10094 10.7606 6.76058C11.101 6.42019 11.5141 6.25 12 6.25C12.4859 6.25 12.8991 6.42019 13.2394 6.76058C13.5798 7.10094 13.75 7.51408 13.75 7.99998C13.75 8.48588 13.5798 8.89901 13.2394 9.23938C12.8991 9.57976 12.4859 9.74995 12 9.74995ZM12 19.8019C9.94104 17.9609 8.38462 16.2042 7.33077 14.5317C6.27692 12.8593 5.75 11.4154 5.75 10.2C5.75 8.30638 6.35321 6.75798 7.55962 5.55478C8.76604 4.35156 10.2462 3.74995 12 3.74995C13.7539 3.74995 15.234 4.35156 16.4404 5.55478C17.6468 6.75798 18.2501 8.30638 18.2501 10.2C18.2501 11.4154 17.7231 12.8593 16.6693 14.5317C15.6154 16.2042 14.059 17.9609 12 19.8019ZM12 21.4615C12.1205 21.4615 12.2378 21.4413 12.3519 21.4009C12.466 21.3605 12.5699 21.3019 12.6635 21.225C15.0455 19.0814 16.8221 17.092 17.9933 15.2567C19.1644 13.4215 19.75 11.7359 19.75 10.2C19.75 7.77691 18.9699 5.84614 17.4096 4.40768C15.8494 2.96923 14.0462 2.25 12 2.25C9.95387 2.25 8.15067 2.96923 6.59042 4.40768C5.03017 5.84614 4.25005 7.77691 4.25005 10.2C4.25005 11.7359 4.83562 13.4215 6.00677 15.2567C7.17792 17.092 8.95452 19.0814 11.3366 21.225C11.4238 21.3019 11.526 21.3605 11.6433 21.4009C11.7606 21.4413 11.8795 21.4615 12 21.4615Z" fill="#00263E"/>
</g>
</svg>
