<svg width="24" height="24" viewBox="0 0 24 24" fill="none" xmlns="http://www.w3.org/2000/svg">
<mask id="mask0_93_3250" style="mask-type:alpha" maskUnits="userSpaceOnUse" x="0" y="0" width="24" height="24">
<rect width="24" height="24" fill="#D9D9D9"/>
</mask>
<g mask="url(#mask0_93_3250)">
<path d="M17.5 7.42321H6.50007V4.70959C6.50007 4.4533 6.5867 4.23894 6.75995 4.06651C6.93318 3.89408 7.14784 3.80786 7.40392 3.80786H16.5922C16.8525 3.80786 17.0689 3.89448 17.2413 4.06771C17.4138 4.24094 17.5 4.45561 17.5 4.71171V7.42321ZM17.8077 12.3078C18.0911 12.3078 18.3286 12.212 18.5202 12.0203C18.7119 11.8286 18.8077 11.5911 18.8077 11.3078C18.8077 11.0245 18.7119 10.787 18.5202 10.5953C18.3286 10.4036 18.0911 10.3078 17.8077 10.3078C17.5244 10.3078 17.2869 10.4036 17.0952 10.5953C16.9036 10.787 16.8077 11.0245 16.8077 11.3078C16.8077 11.5911 16.9036 11.8286 17.0952 12.0203C17.2869 12.212 17.5244 12.3078 17.8077 12.3078ZM8.30777 19.0001H15.6923C15.7821 19.0001 15.8558 18.9713 15.9135 18.9136C15.9712 18.8559 16 18.7821 16 18.6924V14.7309H8.00005V18.6924C8.00005 18.7821 8.0289 18.8559 8.0866 18.9136C8.1443 18.9713 8.21802 19.0001 8.30777 19.0001ZM8.30777 20.5001C7.81066 20.5001 7.3851 20.3231 7.0311 19.9691C6.67708 19.6151 6.50007 19.1895 6.50007 18.6924V16.5001H3.6924C3.43632 16.5001 3.22166 16.4135 3.04842 16.2402C2.87519 16.067 2.78857 15.8523 2.78857 15.5962V10.8078C2.78857 10.0995 3.03056 9.50573 3.51452 9.02656C3.99849 8.54741 4.58982 8.30784 5.28852 8.30784H18.7116C19.4199 8.30784 20.0136 8.54741 20.4928 9.02656C20.972 9.50573 21.2115 10.0995 21.2115 10.8078V15.5962C21.2115 15.8523 21.1249 16.067 20.9517 16.2402C20.7784 16.4135 20.5638 16.5001 20.3077 16.5001H17.5V18.6924C17.5 19.1895 17.323 19.6151 16.969 19.9691C16.615 20.3231 16.1894 20.5001 15.6923 20.5001H8.30777Z" fill="#00263E"/>
</g>
</svg>
