<svg width="24" height="24" viewBox="0 0 24 24" fill="none" xmlns="http://www.w3.org/2000/svg">
<mask id="mask0_93_1474" style="mask-type:alpha" maskUnits="userSpaceOnUse" x="0" y="0" width="24" height="24">
<rect width="24" height="24" transform="matrix(-1 0 0 1 24 0)" fill="#D9D9D9"/>
</mask>
<g mask="url(#mask0_93_1474)">
<path d="M17.75 21.5577C17.9625 21.5577 18.1406 21.4858 18.2844 21.342C18.4281 21.1982 18.5 21.02 18.5 20.8074C18.5 20.5948 18.4281 20.4167 18.2844 20.2731C18.1406 20.1295 17.9625 20.0577 17.75 20.0577H12.75V15.6923H15C16.2487 15.6923 17.3109 15.2545 18.1866 14.3789C19.0622 13.5032 19.5 12.4411 19.5 11.1924C19.5 10.2501 19.2186 9.39814 18.6558 8.63661C18.0929 7.87507 17.3705 7.30905 16.4884 6.93853C16.3449 5.65648 15.8551 4.62828 15.0192 3.85393C14.1833 3.07957 13.1769 2.69238 12 2.69238C10.8231 2.69238 9.81671 3.07957 8.98082 3.85393C8.14492 4.62828 7.65518 5.65648 7.5116 6.93853C6.62313 7.29622 5.89909 7.85903 5.33947 8.62698C4.77986 9.39493 4.50005 10.2501 4.50005 11.1924C4.50005 12.4411 4.93787 13.5032 5.8135 14.3789C6.68915 15.2545 7.75132 15.6923 9.00002 15.6923H11.2501V20.0577H6.25005C6.03755 20.0577 5.85942 20.1296 5.71567 20.2735C5.57192 20.4173 5.50005 20.5955 5.50005 20.8081C5.50005 21.0206 5.57192 21.1987 5.71567 21.3423C5.85942 21.4859 6.03755 21.5577 6.25005 21.5577H17.75ZM15 14.1924H9.00002C8.16669 14.1924 7.45836 13.9007 6.87502 13.3174C6.29169 12.734 6.00002 12.0257 6.00002 11.1924C6.00002 10.5475 6.1981 9.97022 6.59425 9.46061C6.99042 8.95099 7.49235 8.57311 8.10005 8.32696L8.90003 7.99236L9.01155 7.09238C9.11797 6.19493 9.44553 5.48723 9.99425 4.96928C10.543 4.45133 11.2116 4.19236 12 4.19236C12.7885 4.19236 13.4571 4.45133 14.0058 4.96928C14.5545 5.48723 14.8821 6.19493 14.9885 7.09238L15.1 7.99236L15.9769 8.36543C16.559 8.61158 17.0417 8.98626 17.425 9.48946C17.8084 9.99267 18 10.5603 18 11.1924C18 12.0257 17.7084 12.734 17.125 13.3174C16.5417 13.9007 15.8334 14.1924 15 14.1924Z" fill="#00263E"/>
</g>
</svg>
