<svg width="24" height="24" viewBox="0 0 24 24" fill="none" xmlns="http://www.w3.org/2000/svg">
<path d="M18.7819 19.7941L13.3338 14.341C12.8603 14.7323 12.3159 15.0384 11.7005 15.2596C11.085 15.4807 10.4483 15.5913 9.79036 15.5913C8.17202 15.5913 6.80238 15.0304 5.68143 13.9087C4.56048 12.7871 4 11.4165 4 9.79713C4 8.17773 4.56033 6.80669 5.681 5.684C6.80167 4.56133 8.17096 4 9.78889 4C11.4068 4 12.7766 4.56099 13.8982 5.68296C15.0199 6.80493 15.5807 8.17583 15.5807 9.79564C15.5807 10.4724 15.4672 11.1188 15.2402 11.7348C15.0132 12.3508 14.7103 12.8867 14.3316 13.3423L19.8034 18.819C19.9345 18.9477 20 19.1056 20 19.2928C20 19.48 19.9259 19.6477 19.7777 19.7961C19.6418 19.932 19.4762 20 19.2808 20C19.0853 20 18.919 19.9314 18.7819 19.7941ZM9.79036 14.1697C11.0103 14.1697 12.0437 13.746 12.8904 12.8985C13.7371 12.051 14.1605 11.0167 14.1605 9.79564C14.1605 8.57453 13.7371 7.54024 12.8904 6.69276C12.0437 5.84527 11.0103 5.42153 9.79036 5.42153C8.57036 5.42153 7.53701 5.84527 6.6903 6.69276C5.84361 7.54024 5.42026 8.57453 5.42026 9.79564C5.42026 11.0167 5.84361 12.051 6.6903 12.8985C7.53701 13.746 8.57036 14.1697 9.79036 14.1697Z" fill="#00263E"/>
</svg>
