<svg width="24" height="24" viewBox="0 0 24 24" fill="none" xmlns="http://www.w3.org/2000/svg">
<mask id="mask0_93_1499" style="mask-type:alpha" maskUnits="userSpaceOnUse" x="0" y="0" width="24" height="24">
<rect width="24" height="24" transform="matrix(-1 0 0 1 24 0)" fill="#D9D9D9"/>
</mask>
<g mask="url(#mask0_93_1499)">
<path d="M17.2058 20.2307C17.3506 20.2307 17.4712 20.1826 17.5673 20.0865C17.6635 19.9903 17.7116 19.8698 17.7116 19.7249C17.7116 19.6544 17.6898 19.5746 17.6462 19.4855C17.6026 19.3964 17.5455 19.3301 17.475 19.2865L16.3077 18.5C17.2013 18.5 17.9567 18.1913 18.574 17.574C19.1913 16.9567 19.5 16.2012 19.5 15.3077V5.99997C19.5 4.77691 18.9064 3.88782 17.7192 3.3327C16.5321 2.77757 14.6257 2.5 12 2.5C9.31286 2.5 7.39107 2.76987 6.23467 3.30962C5.07826 3.84936 4.50005 4.74614 4.50005 5.99997V15.3077C4.50005 16.2012 4.80871 16.9567 5.42603 17.574C6.04333 18.1913 6.79877 18.5 7.69235 18.5L6.52505 19.2865C6.45453 19.3301 6.39748 19.3922 6.3539 19.473C6.3103 19.5538 6.2885 19.6377 6.2885 19.7249C6.2885 19.8698 6.33657 19.9903 6.43272 20.0865C6.52889 20.1826 6.64941 20.2307 6.79428 20.2307H17.2058ZM18 10.5H12.75V6.7692H18V10.5ZM11.2501 10.5H6.00002V6.7692H11.2501V10.5ZM15.5 15.8077C15.1346 15.8077 14.8254 15.6811 14.5722 15.4279C14.319 15.1747 14.1923 14.8654 14.1923 14.5C14.1923 14.1346 14.319 13.8253 14.5722 13.5721C14.8254 13.3189 15.1346 13.1923 15.5 13.1923C15.8654 13.1923 16.1747 13.3189 16.4279 13.5721C16.6811 13.8253 16.8077 14.1346 16.8077 14.5C16.8077 14.8654 16.6811 15.1747 16.4279 15.4279C16.1747 15.6811 15.8654 15.8077 15.5 15.8077ZM8.50002 15.8077C8.13464 15.8077 7.82535 15.6811 7.57215 15.4279C7.31895 15.1747 7.19235 14.8654 7.19235 14.5C7.19235 14.1346 7.31895 13.8253 7.57215 13.5721C7.82535 13.3189 8.13464 13.1923 8.50002 13.1923C8.86541 13.1923 9.1747 13.3189 9.4279 13.5721C9.6811 13.8253 9.8077 14.1346 9.8077 14.5C9.8077 14.8654 9.6811 15.1747 9.4279 15.4279C9.1747 15.6811 8.86541 15.8077 8.50002 15.8077ZM16.3077 17H7.69235C7.21413 17 6.81252 16.8375 6.48752 16.5125C6.16252 16.1875 6.00002 15.7859 6.00002 15.3077V12H18V15.3077C18 15.7859 17.8375 16.1875 17.5125 16.5125C17.1875 16.8375 16.7859 17 16.3077 17ZM12 3.99997C13.6321 3.99997 14.9206 4.10414 15.8654 4.31247C16.8103 4.52081 17.4295 4.83972 17.7231 5.26922H6.2154C6.4577 4.83972 7.05129 4.52081 7.99617 4.31247C8.94104 4.10414 10.2757 3.99997 12 3.99997Z" fill="#00263E"/>
</g>
</svg>
