<svg width="24" height="24" viewBox="0 0 24 24" fill="none" xmlns="http://www.w3.org/2000/svg">
<path fill-rule="evenodd" clip-rule="evenodd" d="M21.3763 4.50776C22.4096 4.78763 23.2216 5.60925 23.4982 6.65475C23.998 8.54786 24 12.5 24 12.5C24 12.5 24 16.4522 23.4982 18.3453C23.2216 19.3908 22.4096 20.2124 21.3763 20.4922C19.5055 21 12 21 12 21C12 21 4.49456 21 2.62364 20.4922C1.59039 20.2124 0.778399 19.3908 0.501811 18.3453C0 16.4522 0 12.5 0 12.5C0 12.5 0 8.54786 0.501811 6.65475C0.778399 5.60925 1.59039 4.78763 2.62364 4.50776C4.49456 4 12 4 12 4C12 4 19.5055 4 21.3763 4.50776ZM15.8328 12.5003L9.59772 16.1426V8.85803L15.8328 12.5003Z" fill="white"/>
</svg>
