<svg xmlns="http://www.w3.org/2000/svg" width="24" height="24" viewBox="0 0 24 24">
  <path fill="#FFF" d="M12,0 C5.383,0 0,5.383 0,12 C0,18.617 5.383,24 12,24 C18.617,24 24,18.617 24,12 C24,5.383 18.617,0 12,0 Z M8.857,18 C8.134,18 7.408,17.739 6.857,17.187 L6.335,16.587 C5.889,16.141 5.889,15.417 6.335,14.971 L7.637,13.971 C8.083,13.525 8.807,13.525 9.253,13.971 L10.322,14.822 C12.393,14.031 13.921,12.566 14.822,10.322 L13.971,9.253 C13.525,8.807 13.525,8.083 13.971,7.637 L14.971,6.335 C15.417,5.889 16.141,5.889 16.587,6.335 L17.187,6.857 C17.739,7.408 18,8.134 18,8.857 C18,12.857 12.571,18 8.857,18 Z"/>
</svg>
