<svg xmlns="http://www.w3.org/2000/svg" width="25" height="20" viewBox="0 0 25 20">
  <path fill="#FFF" d="M3.24216,19.0562 C2.60409,19.0562 2.06401,18.8345 1.6219,18.3912 C1.17979,17.9478 0.95874,17.4062 0.95874,16.7664 L0.95874,2.34591 C0.95874,1.70607 1.17979,1.16449 1.6219,0.72115 C2.06401,0.27782 2.60409,0.05615 3.24216,0.05615 L22.6753,0.05615 C23.3134,0.05615 23.8535,0.27782 24.2956,0.72115 C24.7377,1.16449 24.9587,1.70607 24.9587,2.34591 L24.9587,16.7664 C24.9587,17.4062 24.7377,17.9478 24.2956,18.3912 C23.8535,18.8345 23.3134,19.0562 22.6753,19.0562 L3.24216,19.0562 Z M12.9587,10.053 C13.064,10.053 13.1685,10.0372 13.2721,10.0055 C13.3757,9.9739 13.4761,9.9304 13.5733,9.8752 L22.6074,4.0753 C22.7515,3.986 22.8535,3.8703 22.9134,3.7282 C22.9733,3.5861 22.9912,3.4363 22.9669,3.27878 C22.9507,2.98648 22.8082,2.76929 22.5393,2.62721 C22.2705,2.48511 21.9993,2.49769 21.7256,2.66496 L12.9587,8.2895 L4.1919,2.66496 C3.91821,2.49769 3.64899,2.4843 3.38423,2.62477 C3.11945,2.76522 2.97491,2.97916 2.95062,3.26659 C2.92632,3.43711 2.94413,3.59544 3.00405,3.74159 C3.06397,3.88775 3.16599,3.99898 3.31011,4.0753 L12.3442,9.8752 C12.4413,9.9304 12.5417,9.9739 12.6454,10.0055 C12.749,10.0372 12.8535,10.053 12.9587,10.053 Z"/>
</svg>
