<svg xmlns="http://www.w3.org/2000/svg" width="24" height="23" viewBox="0 0 24 23">
  <path fill="#FFF" d="M24,11.5699 C24,17.3442 19.606,22.1313 13.87,23 L13.87,14.9367 L16.659,14.9367 L17.19,11.6008 L13.87,11.6008 L13.87,9.43622 C13.87,8.52316 14.334,7.63421 15.82,7.63421 L17.329,7.63421 L17.329,4.7938 C17.329,4.7938 15.959,4.56818 14.65,4.56818 C11.916,4.56818 10.13,6.16579 10.13,9.0573 L10.13,11.5998 L7.091,11.5998 L7.091,14.9358 L10.13,14.9358 L10.13,22.999 C4.395,22.1294 0,17.3433 0,11.5699 C0,5.18042 5.373,0 12,0 C18.627,0 24,5.17946 24,11.5699 Z"/>
</svg>
