<svg xmlns="http://www.w3.org/2000/svg" width="24" height="24" viewBox="0 0 24 24">
  <g fill="#FFF">
    <path d="M12,2.162 C15.204,2.162 15.584,2.174 16.849,2.232 C18.157,2.292 19.504,2.59 20.457,3.543 C21.419,4.505 21.708,5.839 21.768,7.151 C21.826,8.416 21.838,8.796 21.838,12 C21.838,15.204 21.826,15.584 21.768,16.849 C21.709,18.15 21.404,19.51 20.457,20.457 C19.495,21.419 18.162,21.708 16.849,21.768 C15.584,21.826 15.204,21.838 12,21.838 C8.796,21.838 8.416,21.826 7.151,21.768 C5.86,21.709 4.482,21.397 3.543,20.457 C2.586,19.5 2.292,18.153 2.232,16.849 C2.174,15.584 2.162,15.204 2.162,12 C2.162,8.796 2.174,8.416 2.232,7.151 C2.291,5.855 2.599,4.487 3.543,3.543 C4.503,2.583 5.842,2.292 7.151,2.232 C8.416,2.174 8.796,2.162 12,2.162 Z M12,0 C8.741,0 8.332,0.014 7.052,0.072 C5.197,0.157 3.355,0.673 2.014,2.014 C0.668,3.36 0.157,5.198 0.072,7.052 C0.014,8.332 0,8.741 0,12 C0,15.259 0.014,15.668 0.072,16.948 C0.157,18.801 0.675,20.648 2.014,21.986 C3.359,23.331 5.2,23.843 7.052,23.928 C8.332,23.986 8.741,24 12,24 C15.259,24 15.668,23.986 16.948,23.928 C18.802,23.843 20.646,23.326 21.986,21.986 C23.333,20.639 23.843,18.802 23.928,16.948 C23.986,15.668 24,15.259 24,12 C24,8.741 23.986,8.332 23.928,7.052 C23.843,5.197 23.326,3.354 21.986,2.014 C20.643,0.671 18.797,0.156 16.948,0.072 C15.668,0.014 15.259,0 12,0 Z"/>
    <path d="M12 5.83789C8.59701 5.83789 5.83801 8.59689 5.83801 11.9999 5.83801 15.4029 8.59701 18.1619 12 18.1619 15.403 18.1619 18.162 15.4029 18.162 11.9999 18.162 8.59689 15.403 5.83789 12 5.83789zM12.00001 15.99989C9.79101 15.99989 8.00001 14.2089 8.00001 11.9999 8.00001 9.79089 9.79101 7.99989 12.00001 7.99989 14.209 7.99989 16 9.79089 16 11.9999 16 14.2089 14.209 15.99989 12.00001 15.99989zM18.4068 7.0343C19.2021 7.0343 19.8468 6.38959 19.8468 5.5943 19.8468 4.79901 19.2021 4.1543 18.4068 4.1543 17.6115 4.1543 16.9668 4.79901 16.9668 5.5943 16.9668 6.38959 17.6115 7.0343 18.4068 7.0343z"/>
  </g>
</svg>
