<svg xmlns="http://www.w3.org/2000/svg" width="24" height="24" viewBox="0 0 24 24">
  <path fill="#FFF" d="M20.4496,20.4498 L16.8933,20.4498 L16.8933,14.8806 C16.8933,13.5524 16.8697,11.8435 15.0436,11.8435 C13.1915,11.8435 12.9077,13.2899 12.9077,14.7848 L12.9077,20.4498 L9.35259,20.4498 L9.35259,8.99676 L12.767,8.99676 L12.767,10.5614 L12.8143,10.5614 C13.5109,9.37167 14.8047,8.66088 16.1825,8.71174 C19.7873,8.71174 20.4508,11.083 20.4508,14.1662 L20.4496,20.4498 Z M5.33977,7.4309 C4.19968,7.4309 3.27601,6.50723 3.27601,5.36714 C3.27601,4.22704 4.19968,3.30337 5.33977,3.30337 C6.47987,3.30337 7.40354,4.22704 7.40354,5.36714 C7.40354,6.50723 6.47987,7.4309 5.33977,7.4309 Z M7.11733,20.4498 L3.55748,20.4498 L3.55748,8.99676 L7.11733,8.99676 L7.11733,20.4498 Z M22.2224,0.00134422 L1.77046,0.00134422 C0.804218,-0.00929985 0.0118267,0.765352 0,1.7316 L0,22.2675 C0.0118267,23.235 0.804218,24.0096 1.77046,23.999133 L22.2224,23.999133 C23.1911,24.0108 23.987,23.2362 24,22.2675 L24,1.73041 C23.9858,0.761803 23.1899,-0.0128479 22.2224,9.00769237e-10"/>
</svg>
