<svg xmlns="http://www.w3.org/2000/svg" width="20" height="24" viewBox="0 0 20 24">
  <path fill="#FFF" d="M10,11.8678 C10.627,11.8678 11.16,11.6552 11.5992,11.23 C12.0384,10.8048 12.258,10.2887 12.258,9.68167 C12.258,9.07466 12.0384,8.55855 11.5992,8.13335 C11.16,7.70812 10.627,7.49551 10,7.49551 C9.373,7.49551 8.84,7.70812 8.4008,8.13335 C7.96156,8.55855 7.74196,9.07466 7.74196,9.68167 C7.74196,10.2887 7.96156,10.8048 8.4008,11.23 C8.84,11.6552 9.373,11.8678 10,11.8678 Z M10,24 C9.8445,24 9.6931,23.9748 9.5459,23.9243 C9.3987,23.8739 9.2647,23.8006 9.1439,23.7045 C6.07031,21.0266 3.77792,18.5413 2.26675,16.2486 C0.75558,13.956 0,11.8502 0,9.93152 C0,6.9045 1.00662,4.49249 3.01985,2.69548 C5.03308,0.898493 7.3598,0 10,0 C12.6402,0 14.9669,0.898493 16.9801,2.69548 C18.9934,4.49249 20,6.9045 20,9.93152 C20,11.8502 19.2444,13.956 17.7332,16.2486 C16.2221,18.5413 13.9297,21.0266 10.8561,23.7045 C10.7436,23.8006 10.6116,23.8739 10.4603,23.9243 C10.3089,23.9748 10.1555,24 10,24 Z"/>
</svg>
