<svg width="24" height="24" viewBox="0 0 24 24" fill="none" xmlns="http://www.w3.org/2000/svg">
<mask id="mask0_93_1449" style="mask-type:alpha" maskUnits="userSpaceOnUse" x="0" y="0" width="24" height="24">
<rect width="24" height="24" transform="matrix(-1 0 0 1 24 0)" fill="#D9D9D9"/>
</mask>
<g mask="url(#mask0_93_1449)">
<path d="M18.927 20.75C19.4321 20.75 19.8596 20.575 20.2096 20.225C20.5596 19.875 20.7346 19.4474 20.7346 18.9423V10.9538C21.1372 10.623 21.4395 10.1939 21.6414 9.66633C21.8433 9.13876 21.8475 8.56921 21.6539 7.95768L20.6423 4.65382C20.509 4.23332 20.2827 3.89423 19.9635 3.63653C19.6443 3.37884 19.2629 3.25 18.8193 3.25H5.16929C4.72569 3.25 4.34684 3.37307 4.03274 3.61922C3.71864 3.86537 3.4898 4.20383 3.34622 4.6346L2.31544 7.95768C2.12186 8.56921 2.12603 9.13683 2.32794 9.66055C2.52986 10.1843 2.8321 10.6218 3.23467 10.973V18.9423C3.23467 19.4474 3.40967 19.875 3.75967 20.225C4.10967 20.575 4.53724 20.75 5.04237 20.75H18.927ZM9.78467 10.25C9.2385 10.25 8.82792 10.083 8.55292 9.74903C8.27792 9.41506 8.16542 9.05641 8.21542 8.67308L8.82309 4.74995H11.2347V8.69998C11.2347 9.12049 11.0924 9.48396 10.8077 9.79038C10.5231 10.0968 10.1821 10.25 9.78467 10.25ZM14.2847 10.25C13.8244 10.25 13.451 10.0968 13.1644 9.79038C12.8779 9.48396 12.7346 9.12049 12.7346 8.69998V4.74995H15.1462L15.7539 8.71153C15.8078 9.06666 15.6962 9.41185 15.4193 9.7471C15.1424 10.0824 14.7642 10.25 14.2847 10.25ZM18.7347 10.25C18.3642 10.25 18.0456 10.1208 17.7789 9.8625C17.5122 9.60415 17.3475 9.27947 17.2846 8.88845L16.6962 4.74995H18.8193C18.9283 4.74995 19.0148 4.77399 19.0789 4.82208C19.143 4.87016 19.1911 4.94228 19.2231 5.03845L20.1847 8.29227C20.3167 8.72178 20.2546 9.15543 19.9981 9.59325C19.7417 10.0311 19.3206 10.25 18.7347 10.25ZM5.23467 10.25C4.69363 10.25 4.27953 10.0375 3.99234 9.6125C3.70516 9.18748 3.63593 8.74741 3.78464 8.29227L4.79617 5.0192C4.82823 4.92305 4.87632 4.85413 4.94042 4.81245C5.00452 4.77078 5.09106 4.74995 5.20004 4.74995H7.27314L6.68467 8.88845C6.62185 9.27947 6.45711 9.60415 6.19044 9.8625C5.92378 10.1208 5.60518 10.25 5.23467 10.25ZM18.927 19.25H5.04237C4.9526 19.25 4.87888 19.2212 4.82119 19.1635C4.76349 19.1058 4.73464 19.032 4.73464 18.9423V11.6615C4.84361 11.7012 4.93463 11.7259 5.00772 11.7355C5.0808 11.7451 5.15645 11.75 5.23467 11.75C5.68467 11.75 6.0805 11.6685 6.42217 11.5057C6.76383 11.3429 7.09492 11.082 7.41542 10.723C7.69618 11.0358 8.02823 11.2852 8.41157 11.4711C8.7949 11.657 9.23208 11.75 9.72312 11.75C10.1475 11.75 10.5475 11.6618 10.9231 11.4855C11.2987 11.3092 11.6526 11.0551 11.9847 10.723C12.2936 11.0551 12.6436 11.3092 13.0347 11.4855C13.4257 11.6618 13.8218 11.75 14.2231 11.75C14.6744 11.75 15.0975 11.6682 15.4923 11.5048C15.8872 11.3413 16.2347 11.0807 16.5347 10.723C16.9552 11.1435 17.3427 11.4198 17.6972 11.5519C18.0517 11.6839 18.3975 11.75 18.7347 11.75C18.8129 11.75 18.8936 11.7451 18.977 11.7355C19.0603 11.7259 19.1462 11.7012 19.2347 11.6615V18.9423C19.2347 19.032 19.2058 19.1058 19.1481 19.1635C19.0904 19.2212 19.0167 19.25 18.927 19.25Z" fill="#00263E"/>
</g>
</svg>
