<svg xmlns="http://www.w3.org/2000/svg" width="24" height="20" viewBox="0 0 24 20">
  <path fill="#FFF" d="M21.543,5.10434 C21.557,5.31534 21.557,5.52734 21.557,5.74034 C21.557,12.2473 16.603,19.7503 7.547,19.7503 L7.547,19.7463 C4.872,19.7503 2.252,18.9843 0,17.5393 C0.389,17.5863 0.78,17.6093 1.172,17.6103 C3.39,17.6123 5.544,16.8683 7.287,15.4983 C5.18,15.4583 3.332,14.0843 2.687,12.0783 C3.425,12.2203 4.185,12.1913 4.91,11.9943 C2.612,11.5303 0.96,9.5113 0.96,7.16734 C0.96,7.14634 0.96,7.12534 0.96,7.10534 C1.645,7.48734 2.411,7.69834 3.195,7.72134 C1.031,6.27634 0.363,3.39834 1.67,1.14834 C4.17,4.22434 7.859,6.09434 11.818,6.29334 C11.421,4.58334 11.964,2.79134 13.242,1.58834 C15.225,-0.27666 18.344,-0.18066 20.209,1.80234 C21.312,1.58534 22.369,1.18034 23.336,0.60734 C22.968,1.74734 22.199,2.71534 21.171,3.33134 C22.148,3.21434 23.101,2.95334 24,2.55534 C23.339,3.54434 22.507,4.40734 21.543,5.10434 Z"/>
</svg>
