<svg xmlns="http://www.w3.org/2000/svg" width="24" height="17" viewBox="0 0 24 17">
  <path fill="#FFF" fill-rule="evenodd" d="M21.3763,0.50776 C22.4096,0.78763 23.2216,1.60925 23.4982,2.65475 C23.998,4.54786 24,8.5 24,8.5 C24,8.5 24,12.4522 23.4982,14.3453 C23.2216,15.3908 22.4096,16.2124 21.3763,16.4922 C19.5055,17 12,17 12,17 C12,17 4.49456,17 2.62364,16.4922 C1.59039,16.2124 0.778399,15.3908 0.501811,14.3453 C0,12.4522 0,8.5 0,8.5 C0,8.5 0,4.54786 0.501811,2.65475 C0.778399,1.60925 1.59039,0.78763 2.62364,0.50776 C4.49456,0 12,0 12,0 C12,0 19.5055,0 21.3763,0.50776 Z M15.8328,8.5003 L9.59772,12.1426 L9.59772,4.85803 L15.8328,8.5003 Z"/>
</svg>
